<svg width="290" height="64" viewBox="0 0 290 64" fill="none" xmlns="http://www.w3.org/2000/svg">
<path d="M63.9994 16.5526C63.9942 14.7763 62.5879 13.3208 60.8127 13.2545C60.7024 13.0239 60.5921 12.7866 60.474 12.5615C61.9453 11.4887 62.2683 9.42629 61.1954 7.95501C60.1225 6.48372 58.0601 6.1607 56.5888 7.23364C56.519 7.28454 56.4513 7.33805 56.3858 7.39433C56.2324 7.25529 56.0846 7.11075 55.9268 6.97723C56.1543 6.52455 56.2737 6.02511 56.2754 5.5185C56.2796 3.69398 54.8037 2.21153 52.9792 2.20739C51.9092 2.20505 50.9044 2.7209 50.2827 3.59192C49.7067 3.36613 49.1182 3.16641 48.5173 2.99276C48.3527 1.18272 46.752 -0.150905 44.9423 0.0137812C43.6389 0.1324 42.5295 1.01211 42.1174 2.25443C41.6308 2.2765 41.1464 2.30518 40.6697 2.36477C40.144 0.618873 38.3027 -0.370487 36.5567 0.155158C35.1636 0.57446 34.2091 1.8565 34.2069 3.31151C34.2113 3.62212 34.2599 3.93053 34.3515 4.22735L34.304 4.25053C32.9912 2.97814 30.8955 3.01069 29.6231 4.32349C29.0259 4.93962 28.6913 5.76374 28.6898 6.62179C28.6898 6.69351 28.7063 6.76082 28.7107 6.83144C28.3512 6.69613 27.9705 6.62524 27.5863 6.62179C25.7642 6.61558 24.2821 8.08769 24.2759 9.90986C24.2744 10.3395 24.357 10.7654 24.5188 11.1635C22.7631 11.6276 21.7161 13.4273 22.1804 15.183C22.412 16.0587 22.9944 16.8002 23.7906 17.2323C23.3866 18.8133 23.179 20.4381 23.1726 22.0698H62.896C62.8883 21.1069 62.8109 20.1459 62.6643 19.1942C63.5025 18.5747 63.9978 17.5948 63.9994 16.5526Z" fill="#FFD884"/>
<path d="M59.1608 64H26.9076L22.0691 22.0698H63.9993L59.1608 64Z" fill="#E3472C"/>
<path d="M39.7241 64L38.6206 22.0698H29.7932L33.1035 64H39.7241Z" fill="#F6F6E7"/>
<path d="M39.4812 54.7897L39.724 64H46.3445L46.4648 59.4417C43.9967 58.1125 41.6587 56.555 39.4812 54.7897Z" fill="#DD1C4B"/>
<path d="M24.1115 30.4955L22.0691 22.0698L26.9076 64H33.1034L31.7373 46.6949C28.1319 41.8629 25.5381 36.3532 24.1115 30.4955Z" fill="#DD1C4B"/>
<path d="M53.0942 62.3614L52.9651 64H59.1608C57.1029 63.5956 55.0758 63.048 53.0942 62.3614Z" fill="#DD1C4B"/>
<path d="M31.7373 46.6949L33.1033 64H39.7239L39.4812 54.7897C36.5725 52.4248 33.9711 49.7054 31.7373 46.6949Z" fill="#FFD884"/>
<path d="M56.2754 22.0698H47.448L46.4648 59.4417C48.5923 60.5922 50.8093 61.5686 53.0942 62.3614L56.2754 22.0698Z" fill="#F6F6E7"/>
<path d="M46.465 59.4417L46.3447 64H52.9653L53.0944 62.3614C50.8095 61.5685 48.5925 60.5921 46.465 59.4417Z" fill="#FFD884"/>
<path d="M23.1725 30.8972L20.6258 64H3.65071L1.104 30.8972" fill="#E3472C"/>
<path d="M1.104 30.8972L3.65071 64H7.72457V30.8972H1.104V30.8972Z" fill="#DD1C4B"/>
<path d="M0.000732422 26.4835H24.2761V30.8972H0.000732422V26.4835V26.4835Z" fill="#F6F6E7"/>
<path d="M0.000732422 26.4835H4.41444V30.8972H0.000732422V26.4835V26.4835Z" fill="#FFD884"/>
<path d="M17.9347 42.7601C16.3815 42.2426 14.6723 42.5353 13.3798 43.5403L10.1523 46.0484C8.1894 47.5748 5.39415 47.3878 3.65198 45.6136L2.10718 44.0578L2.71296 51.923L8.32057 52.5795C10.0045 52.8238 11.6944 52.1762 12.7839 50.8692C14.0954 49.2952 16.2481 48.7039 18.1797 49.3873L21.6566 50.6165L22.1741 43.8856L17.9347 42.7601Z" fill="#F6F6E7"/>
<path d="M14.3453 26.4835L11.035 12.1389H0.000732422V16.5527H7.72472L9.93157 26.4835H14.3453Z" fill="#2BB3CE"/>
<path d="M8.82815 14.3458L11.6286 26.4835H14.3453L11.035 12.1389H0.000732422V14.3458H8.82815V14.3458Z" fill="#88D0EF"/>
<path d="M7.72446 47.0436C6.21925 47.2222 4.71638 46.6923 3.65613 45.6092L2.11133 44.0533L2.71711 51.9186L7.72446 52.5089V47.0436V47.0436Z" fill="#FFD884"/>
<path d="M108.832 26.344V49H101.76V37.704L98.272 49H92.192L88.704 37.704V49H81.6V26.344H90.304L95.296 39.944L100.16 26.344H108.832ZM120.614 49.224C118.8 49.224 117.168 48.8507 115.718 48.104C114.267 47.3573 113.126 46.2907 112.294 44.904C111.483 43.496 111.078 41.8533 111.078 39.976C111.078 38.0987 111.483 36.4667 112.294 35.08C113.126 33.672 114.267 32.5947 115.718 31.848C117.168 31.1013 118.8 30.728 120.614 30.728C122.427 30.728 124.059 31.1013 125.51 31.848C126.96 32.5947 128.091 33.672 128.902 35.08C129.734 36.4667 130.15 38.0987 130.15 39.976C130.15 41.8533 129.734 43.496 128.902 44.904C128.091 46.2907 126.96 47.3573 125.51 48.104C124.059 48.8507 122.427 49.224 120.614 49.224ZM120.614 43.08C121.275 43.08 121.83 42.824 122.278 42.312C122.726 41.7787 122.95 41 122.95 39.976C122.95 38.952 122.726 38.184 122.278 37.672C121.83 37.1387 121.275 36.872 120.614 36.872C119.952 36.872 119.398 37.1387 118.95 37.672C118.502 38.184 118.278 38.952 118.278 39.976C118.278 41 118.491 41.7787 118.918 42.312C119.366 42.824 119.931 43.08 120.614 43.08ZM141.533 42.248L144.413 30.952H151.965L145.949 49H137.085L131.069 30.952H138.621L141.533 42.248ZM157.434 29.512C156.197 29.512 155.205 29.1813 154.458 28.52C153.711 27.8587 153.338 27.0267 153.338 26.024C153.338 25 153.711 24.1573 154.458 23.496C155.205 22.8133 156.197 22.472 157.434 22.472C158.65 22.472 159.631 22.8133 160.378 23.496C161.125 24.1573 161.498 25 161.498 26.024C161.498 27.0267 161.125 27.8587 160.378 28.52C159.631 29.1813 158.65 29.512 157.434 29.512ZM160.954 30.952V49H153.85V30.952H160.954ZM181.635 39.816C181.635 40.3067 181.603 40.776 181.539 41.224H170.115C170.221 42.7813 170.872 43.56 172.067 43.56C172.835 43.56 173.389 43.208 173.731 42.504H181.251C180.995 43.784 180.451 44.936 179.619 45.96C178.808 46.9627 177.773 47.7627 176.515 48.36C175.277 48.936 173.912 49.224 172.419 49.224C170.627 49.224 169.027 48.8507 167.619 48.104C166.232 47.3573 165.144 46.2907 164.355 44.904C163.587 43.496 163.203 41.8533 163.203 39.976C163.203 38.0987 163.587 36.4667 164.355 35.08C165.144 33.672 166.232 32.5947 167.619 31.848C169.027 31.1013 170.627 30.728 172.419 30.728C174.211 30.728 175.8 31.1013 177.187 31.848C178.595 32.5733 179.683 33.6187 180.451 34.984C181.24 36.3493 181.635 37.96 181.635 39.816ZM174.435 38.12C174.435 37.5227 174.243 37.0747 173.859 36.776C173.475 36.456 172.995 36.296 172.419 36.296C171.16 36.296 170.424 36.904 170.211 38.12H174.435Z" fill="#2BB3CE"/>
<path d="M199.881 26.344V31.976H190.985V35.112H197.385V40.456H190.985V49H183.881V26.344H199.881ZM205.872 29.512C204.634 29.512 203.642 29.1813 202.896 28.52C202.149 27.8587 201.776 27.0267 201.776 26.024C201.776 25 202.149 24.1573 202.896 23.496C203.642 22.8133 204.634 22.472 205.872 22.472C207.088 22.472 208.069 22.8133 208.816 23.496C209.562 24.1573 209.936 25 209.936 26.024C209.936 27.0267 209.562 27.8587 208.816 28.52C208.069 29.1813 207.088 29.512 205.872 29.512ZM209.392 30.952V49H202.288V30.952H209.392ZM225.24 30.824C227.309 30.824 228.92 31.5173 230.072 32.904C231.245 34.2907 231.832 36.168 231.832 38.536V49H224.76V39.432C224.76 38.5787 224.525 37.9067 224.056 37.416C223.608 36.904 223 36.648 222.232 36.648C221.443 36.648 220.824 36.904 220.376 37.416C219.928 37.9067 219.704 38.5787 219.704 39.432V49H212.6V30.952H219.704V33.704C220.259 32.8507 220.995 32.1573 221.912 31.624C222.851 31.0907 223.96 30.824 225.24 30.824ZM233.953 39.976C233.953 38.0773 234.273 36.4347 234.913 35.048C235.574 33.64 236.47 32.5733 237.601 31.848C238.731 31.1013 240.001 30.728 241.409 30.728C242.582 30.728 243.585 30.9733 244.417 31.464C245.27 31.9333 245.921 32.584 246.369 33.416V25.32H253.473V49H246.369V46.536C245.921 47.368 245.27 48.0293 244.417 48.52C243.585 48.9893 242.582 49.224 241.409 49.224C240.001 49.224 238.731 48.8613 237.601 48.136C236.47 47.3893 235.574 46.3227 234.913 44.936C234.273 43.528 233.953 41.8747 233.953 39.976ZM246.401 39.976C246.401 39.016 246.155 38.2693 245.665 37.736C245.174 37.2027 244.545 36.936 243.777 36.936C243.009 36.936 242.379 37.2027 241.889 37.736C241.398 38.2693 241.153 39.016 241.153 39.976C241.153 40.936 241.398 41.6827 241.889 42.216C242.379 42.7493 243.009 43.016 243.777 43.016C244.545 43.016 245.174 42.7493 245.665 42.216C246.155 41.6827 246.401 40.936 246.401 39.976ZM274.135 39.816C274.135 40.3067 274.103 40.776 274.039 41.224H262.615C262.721 42.7813 263.372 43.56 264.567 43.56C265.335 43.56 265.889 43.208 266.231 42.504H273.751C273.495 43.784 272.951 44.936 272.119 45.96C271.308 46.9627 270.273 47.7627 269.015 48.36C267.777 48.936 266.412 49.224 264.919 49.224C263.127 49.224 261.527 48.8507 260.119 48.104C258.732 47.3573 257.644 46.2907 256.855 44.904C256.087 43.496 255.703 41.8533 255.703 39.976C255.703 38.0987 256.087 36.4667 256.855 35.08C257.644 33.672 258.732 32.5947 260.119 31.848C261.527 31.1013 263.127 30.728 264.919 30.728C266.711 30.728 268.3 31.1013 269.687 31.848C271.095 32.5733 272.183 33.6187 272.951 34.984C273.74 36.3493 274.135 37.96 274.135 39.816ZM266.935 38.12C266.935 37.5227 266.743 37.0747 266.359 36.776C265.975 36.456 265.495 36.296 264.919 36.296C263.66 36.296 262.924 36.904 262.711 38.12H266.935ZM283.485 34.28C284.211 33.2347 285.096 32.4027 286.141 31.784C287.187 31.144 288.275 30.824 289.405 30.824V38.408H287.389C286.045 38.408 285.053 38.6427 284.413 39.112C283.795 39.5813 283.485 40.4133 283.485 41.608V49H276.381V30.952H283.485V34.28Z" fill="#E3472C"/>
</svg>
